# xmcd
#
# Track frame offsets: 
#        150
#        12809
#        23599
#        34823
#        46073
#        59120
#        76654
#        90223
#        109061
#        123212
#        135240
#        147438
#        159229
#        174457
#
# Disc length: 2547 seconds
#
# Revision: 1
# Processed by: cddbd v1.5.2PL0 Copyright (c) Steve Scherf et al.
# Submitted via: ExactAudioCopy v1.0b3
#
DISCID=9d09f10e
DTITLE=Nelson, Willie - Remember Me Vol. 1
DYEAR=2012
DGENRE=Country
TTITLE0=Remember Me
TTITLE1=Sixteen Tons 
TTITLE2=Why Baby Why
TTITLE3=Today I Started Loving You Again
TTITLE4=Movin' On 
TTITLE5=That Just About Does It 
TTITLE6=This Old House 
TTITLE7=Sunday Mornin' Comin' Down 
TTITLE8=Smoke! Smoke! Smoke! (That Cigarette)
TTITLE9=Slowly 
TTITLE10=Satisfied Mind 
TTITLE11=Roly Poly 
TTITLE12=Release Me 
TTITLE13=Ramblin' Fever 
EXTD=YEAR: 2012
EXTT0=
EXTT1=
EXTT2=
EXTT3=
EXTT4=
EXTT5=
EXTT6=
EXTT7=
EXTT8=
EXTT9=
EXTT10=
EXTT11=
EXTT12=
EXTT13=
PLAYORDER=
